<?xml version="1.0" encoding="utf-8"?>
<svg width="50" height="50" viewBox="0 0 50 50" fill="rgb(12,91,128)" xmlns="http://www.w3.org/2000/svg">
    <path d="M26.75 2.74241L43.4006 12.3557C44.4835 12.9809 45.1506 14.1363 45.1506 15.3868V34.6132C45.1506 35.8637 44.4835 37.0191 43.4006 37.6443L26.75 47.2576C25.6671 47.8828 24.3329 47.8828 23.25 47.2576L6.59937 37.6443C5.51646 37.0191 4.84937 35.8637 4.84937 34.6133V15.3868C4.84937 14.1363 5.51646 12.9809 6.59937 12.3557L23.25 2.74241C24.3329 2.1172 25.6671 2.1172 26.75 2.74241Z" stroke="#09dbbf" stroke-width="3"/>
    <line x1="19.9" y1="35" x2="19.9" y2="15" stroke="#09dbbf" stroke-width="3"/>
    <line x1="29.5" y1="35" x2="29.5" y2="15" stroke="#09dbbf" stroke-width="3"/>
    <line x1="31" y1="24" x2="19" y2="24" stroke="#09dbbf" stroke-width="3"/>
</svg>